<?xml version="1.0" encoding="UTF-8" standalone="no"?><!DOCTYPE svg PUBLIC "-//W3C//DTD SVG 1.1//EN" "http://www.w3.org/Graphics/SVG/1.1/DTD/svg11.dtd"><svg width="100%" height="100%" viewBox="0 0 144 144" version="1.1" xmlns="http://www.w3.org/2000/svg" xmlns:xlink="http://www.w3.org/1999/xlink" xml:space="preserve" xmlns:serif="http://www.serif.com/" style="fill-rule:evenodd;clip-rule:evenodd;stroke-linejoin:round;stroke-miterlimit:2;"><rect x="0" y="0" width="144" height="144" style="fill:#ff5f1f;"/><circle cx="123.84" cy="110.4" r="5.76" style="fill:#161616;"/><path d="M29.284,27.081l23.484,-0c2.869,-0 5.363,0.309 7.481,0.928c2.138,0.6 3.91,1.434 5.316,2.503c1.406,1.069 2.447,2.344 3.122,3.825c0.694,1.462 1.04,3.047 1.04,4.753c0,2.794 -0.881,5.241 -2.643,7.341c2.025,1.2 3.534,2.756 4.528,4.668c0.994,1.913 1.49,4.088 1.49,6.525c0,2.044 -0.346,3.891 -1.04,5.541c-0.675,1.65 -1.716,3.066 -3.122,4.247c-1.387,1.162 -3.15,2.062 -5.287,2.7c-2.119,0.619 -4.622,0.928 -7.51,0.928l-26.859,-0l-0,-43.959Zm26.915,16.875c0.769,-0 1.519,0.028 2.25,0.084c1.257,-1.2 1.885,-2.569 1.885,-4.106c-0,-1.594 -0.628,-2.822 -1.885,-3.685c-1.237,-0.881 -3.056,-1.322 -5.456,-1.322l-14.794,0l0,9.029l18,-0Zm0.169,19.322c2.4,-0 4.219,-0.516 5.456,-1.547c1.257,-1.032 1.885,-2.485 1.885,-4.36c-0,-1.875 -0.628,-3.337 -1.885,-4.387c-1.237,-1.05 -3.056,-1.575 -5.456,-1.575l-18.169,-0l0,11.869l18.169,-0Z" style="fill:#161616;fill-rule:nonzero;"/><path d="M86.916,60.156l-19.21,-33.075l10.097,-0l13.528,25.003l13.36,-25.003l10.096,-0l-18.956,33.018l0,10.941l-8.915,0l-0,-10.884Z" style="fill:#161616;fill-rule:nonzero;"/><path d="M29.284,72.201l16.115,-0c4.707,-0 8.794,0.506 12.263,1.518c3.469,1.013 6.337,2.466 8.606,4.36c2.288,1.875 3.985,4.162 5.091,6.862c1.125,2.681 1.687,5.7 1.687,9.057c0,3.187 -0.553,6.141 -1.659,8.859c-1.106,2.7 -2.794,5.043 -5.063,7.031c-2.268,1.969 -5.137,3.516 -8.606,4.641c-3.469,1.106 -7.556,1.659 -12.262,1.659l-16.172,-0.028l-0,-43.959Zm18.309,36.253c2.663,0 4.997,-0.338 7.003,-1.013c2.006,-0.694 3.675,-1.668 5.006,-2.925c1.351,-1.256 2.363,-2.775 3.038,-4.556c0.675,-1.781 1.013,-3.769 1.013,-5.962c-0,-2.157 -0.338,-4.097 -1.013,-5.822c-0.675,-1.744 -1.687,-3.216 -3.038,-4.416c-1.331,-1.219 -3,-2.156 -5.006,-2.813c-2.006,-0.656 -4.34,-0.984 -7.003,-0.984l-9.394,0l0,28.491l9.394,0Z" style="fill:#161616;fill-rule:nonzero;"/><path d="M74.404,72.201l22.359,-0c3.376,-0 6.3,0.356 8.776,1.068c2.474,0.694 4.527,1.707 6.159,3.038c1.631,1.331 2.841,2.953 3.628,4.866c0.806,1.912 1.209,4.078 1.209,6.496c0,1.632 -0.196,3.188 -0.591,4.669c-0.394,1.463 -1.003,2.813 -1.828,4.05c-0.806,1.237 -1.828,2.344 -3.065,3.319c-1.238,0.956 -2.691,1.753 -4.359,2.391l9.562,14.062l-10.913,0l-8.269,-12.488l-0.252,0l-13.501,-0.028l0,12.516l-8.915,0l-0,-43.959Zm22.584,23.737c1.688,0 3.159,-0.197 4.416,-0.591c1.275,-0.393 2.335,-0.946 3.177,-1.659c0.863,-0.712 1.501,-1.575 1.914,-2.587c0.431,-1.032 0.646,-2.175 0.646,-3.432c-0,-2.456 -0.843,-4.35 -2.531,-5.681c-1.687,-1.35 -4.229,-2.025 -7.622,-2.025l-13.669,0l0,15.975l13.669,0Z" style="fill:#161616;fill-rule:nonzero;"/></svg>