<svg width="150" height="150" viewBox="0 0 150 150" fill="none" xmlns="http://www.w3.org/2000/svg">
<rect width="150" height="150" fill="#FF5F1F"/>
<circle cx="129" cy="115" r="6" fill="#161616"/>
<path d="M30.5039 28.209H54.9668C57.9551 28.209 60.5527 28.5312 62.7598 29.1758C64.9863 29.8008 66.832 30.6699 68.2969 31.7832C69.7617 32.8965 70.8457 34.2246 71.5488 35.7676C72.2715 37.291 72.6328 38.9414 72.6328 40.7188C72.6328 43.6289 71.7148 46.1777 69.8789 48.3652C71.9883 49.6152 73.5605 51.2363 74.5957 53.2285C75.6309 55.2207 76.1484 57.4863 76.1484 60.0254C76.1484 62.1543 75.7871 64.0781 75.0645 65.7969C74.3613 67.5156 73.2773 68.9902 71.8125 70.2207C70.3672 71.4316 68.5312 72.3691 66.3047 73.0332C64.0977 73.6777 61.4902 74 58.4824 74H30.5039V28.209ZM58.541 45.7871C59.3418 45.7871 60.123 45.8164 60.8848 45.875C62.1934 44.625 62.8477 43.1992 62.8477 41.5977C62.8477 39.9375 62.1934 38.6582 60.8848 37.7598C59.5957 36.8418 57.7012 36.3828 55.2012 36.3828H39.791V45.7871H58.541ZM58.7168 65.9141C61.2168 65.9141 63.1113 65.377 64.4004 64.3027C65.709 63.2285 66.3633 61.7148 66.3633 59.7617C66.3633 57.8086 65.709 56.2852 64.4004 55.1914C63.1113 54.0977 61.2168 53.5508 58.7168 53.5508H39.791V65.9141H58.7168Z" fill="#161616"/>
<path d="M90.5371 62.6621L70.5273 28.209H81.0449L95.1367 54.2539L109.053 28.209H119.57L99.8242 62.6035V74H90.5371V62.6621Z" fill="#161616"/>
<path d="M30.5039 75.209H47.291C52.1934 75.209 56.4512 75.7363 60.0645 76.791C63.6777 77.8457 66.666 79.3594 69.0293 81.332C71.4121 83.2852 73.1797 85.668 74.332 88.4805C75.5039 91.2734 76.0898 94.418 76.0898 97.9141C76.0898 101.234 75.5137 104.311 74.3613 107.143C73.209 109.955 71.4512 112.396 69.0879 114.467C66.7246 116.518 63.7363 118.129 60.123 119.301C56.5098 120.453 52.252 121.029 47.3496 121.029L30.5039 121V75.209ZM49.5762 112.973C52.3496 112.973 54.7812 112.621 56.8711 111.918C58.9609 111.195 60.6992 110.18 62.0859 108.871C63.4922 107.562 64.5469 105.98 65.25 104.125C65.9531 102.27 66.3047 100.199 66.3047 97.9141C66.3047 95.668 65.9531 93.6465 65.25 91.8496C64.5469 90.0332 63.4922 88.5 62.0859 87.25C60.6992 85.9805 58.9609 85.0039 56.8711 84.3203C54.7812 83.6367 52.3496 83.2949 49.5762 83.2949H39.791V112.973H49.5762Z" fill="#161616"/>
<path d="M77.5039 75.209H100.795C104.311 75.209 107.357 75.5801 109.936 76.3223C112.514 77.0449 114.652 78.0996 116.352 79.4863C118.051 80.873 119.311 82.5625 120.131 84.5547C120.971 86.5469 121.391 88.8027 121.391 91.3223C121.391 93.0215 121.186 94.6426 120.775 96.1855C120.365 97.709 119.73 99.1152 118.871 100.404C118.031 101.693 116.967 102.846 115.678 103.861C114.389 104.857 112.875 105.688 111.137 106.352L121.098 121H109.73L101.117 107.992H100.854L86.791 107.963V121H77.5039V75.209ZM101.029 99.9355C102.787 99.9355 104.32 99.7305 105.629 99.3203C106.957 98.9102 108.061 98.334 108.939 97.5918C109.838 96.8496 110.502 95.9512 110.932 94.8965C111.381 93.8223 111.605 92.6309 111.605 91.3223C111.605 88.7637 110.727 86.791 108.969 85.4043C107.211 83.998 104.564 83.2949 101.029 83.2949H86.791V99.9355H101.029Z" fill="#161616"/>
</svg>
